<svg width="20" height="20" viewBox="0 0 20 20" fill="none" xmlns="http://www.w3.org/2000/svg">
<path d="M2 0.5H18C18.5304 0.5 19.0391 0.710714 19.4142 1.08579C19.7893 1.46086 20 1.96957 20 2.5V17.5C20 18.0304 19.7893 18.5391 19.4142 18.9142C19.0391 19.2893 18.5304 19.5 18 19.5H2C1.46957 19.5 0.960859 19.2893 0.585786 18.9142C0.210714 18.5391 0 18.0304 0 17.5V2.5C0 1.96957 0.210714 1.46086 0.585786 1.08579C0.960859 0.710714 1.46957 0.5 2 0.5ZM2 4.5V7.5H6V4.5H2ZM8 4.5V7.5H12V4.5H8ZM18 7.5V4.5H14V7.5H18ZM2 9.5V12.5H6V9.5H2ZM2 17.5H6V14.5H2V17.5ZM8 9.5V12.5H12V9.5H8ZM8 17.5H12V14.5H8V17.5ZM18 17.5V14.5H14V17.5H18ZM18 9.5H14V12.5H18V9.5Z" fill="#2162F7"/>
</svg>
